<svg width="0" height="0" class="hidden">
  <symbol xmlns="http://www.w3.org/2000/svg" xmlns:xlink="http://www.w3.org/1999/xlink" version="1.1" xml:space="preserve" viewBox="0 0 256 256" id="rating-star-3">
    <defs></defs>
    <g transform="translate(1.4065934065934016 1.4065934065934016) scale(2.81 2.81)">
      <path d="M 21.209 88.116 c -1.344 0 -2.68 -0.422 -3.821 -1.251 c -2.019 -1.467 -3.012 -3.907 -2.59 -6.368 l 3.964 -23.11 L 1.971 41.019 c -1.788 -1.743 -2.419 -4.301 -1.647 -6.675 c 0.772 -2.374 2.785 -4.071 5.256 -4.429 l 23.204 -3.372 L 39.162 5.515 C 40.267 3.277 42.504 1.886 45 1.886 c 0 0 0 0 0.001 0 c 2.496 0 4.732 1.391 5.837 3.629 l 10.378 21.028 l 23.206 3.372 c 2.469 0.358 4.483 2.056 5.255 4.429 c 0.772 2.374 0.142 4.932 -1.646 6.675 L 71.238 57.387 l 3.965 23.111 c 0.421 2.462 -0.572 4.902 -2.591 6.369 c -2.021 1.466 -4.647 1.655 -6.855 0.495 L 45 76.449 L 24.245 87.362 C 23.284 87.866 22.244 88.116 21.209 88.116 z M 45 67.128 c 1.04 0 2.079 0.249 3.028 0.747 l 17.451 9.174 l -3.333 -19.43 c -0.363 -2.109 0.337 -4.264 1.872 -5.761 l 14.117 -13.761 l -19.51 -2.835 c -2.121 -0.308 -3.953 -1.64 -4.901 -3.562 L 45 14.021 l -8.725 17.678 c -0.948 1.921 -2.78 3.253 -4.901 3.561 l -19.51 2.835 l 14.117 13.76 c 1.535 1.495 2.235 3.649 1.873 5.762 l -3.333 19.43 l 17.45 -9.174 C 42.919 67.377 43.96 67.128 45 67.128 z M 42.767 9.498 c 0 0 0 0.001 0.001 0.001 L 42.767 9.498 C 42.768 9.498 42.768 9.498 42.767 9.498 z" transform=" matrix(1 0 0 1 0 0) " stroke-linecap="round"></path>
    </g>
  </symbol>
  <symbol xmlns="http://www.w3.org/2000/svg" xmlns:xlink="http://www.w3.org/1999/xlink" version="1.1" xml:space="preserve" viewBox="0 0 256 256" id="rating-star-4">
    <defs></defs>
    <g transform="translate(1.4065934065934016 1.4065934065934016) scale(2.81 2.81)">
      <path d="M 21.209 88.116 c -1.344 0 -2.68 -0.422 -3.821 -1.251 c -2.019 -1.467 -3.012 -3.907 -2.59 -6.368 l 3.964 -23.11 L 1.971 41.019 c -1.788 -1.743 -2.419 -4.301 -1.647 -6.675 c 0.772 -2.374 2.785 -4.071 5.256 -4.429 l 23.204 -3.372 L 39.162 5.515 C 40.267 3.277 42.504 1.886 45 1.886 c 0 0 0 0 0.001 0 c 2.496 0 4.732 1.391 5.837 3.629 l 10.378 21.028 l 23.206 3.372 c 2.469 0.358 4.483 2.056 5.255 4.429 c 0.772 2.374 0.142 4.932 -1.646 6.675 L 71.238 57.387 l 3.965 23.111 c 0.421 2.462 -0.572 4.902 -2.591 6.369 c -2.021 1.466 -4.647 1.655 -6.855 0.495 L 45 76.449 L 24.245 87.362 C 23.284 87.866 22.244 88.116 21.209 88.116 z M 45 67.128 c 1.04 0 2.079 0.249 3.028 0.747 l 17.451 9.174 l -3.333 -19.43 c -0.363 -2.109 0.337 -4.264 1.872 -5.761 l 14.117 -13.761 l -19.51 -2.835 c -2.121 -0.308 -3.953 -1.64 -4.901 -3.562 L 45 14.021 l -8.725 17.678 c -0.948 1.921 -2.78 3.253 -4.901 3.561 l -19.51 2.835 l 14.117 13.76 c 1.535 1.495 2.235 3.649 1.873 5.762 l -3.333 19.43 l 17.45 -9.174 C 42.919 67.377 43.96 67.128 45 67.128 z M 42.767 9.498 c 0 0 0 0.001 0.001 0.001 L 42.767 9.498 C 42.768 9.498 42.768 9.498 42.767 9.498 z" transform=" matrix(1 0 0 1 0 0) " stroke-linecap="round"></path>
    </g>
  </symbol>
  <symbol xmlns="http://www.w3.org/2000/svg" xmlns:xlink="http://www.w3.org/1999/xlink" version="1.1" xml:space="preserve" viewBox="0 0 256 256" id="rating-star-0">
    <defs></defs>
    <g transform="translate(1.4065934065934016 1.4065934065934016) scale(2.81 2.81)">
      <path d="M 21.209 88.116 c -1.344 0 -2.68 -0.422 -3.821 -1.251 c -2.019 -1.467 -3.012 -3.907 -2.59 -6.368 l 3.964 -23.11 L 1.971 41.019 c -1.788 -1.743 -2.419 -4.301 -1.647 -6.675 c 0.772 -2.374 2.785 -4.071 5.256 -4.429 l 23.204 -3.372 L 39.162 5.515 C 40.267 3.277 42.504 1.886 45 1.886 c 0 0 0 0 0.001 0 c 2.496 0 4.732 1.391 5.837 3.629 l 10.378 21.028 l 23.206 3.372 c 2.469 0.358 4.483 2.056 5.255 4.429 c 0.772 2.374 0.142 4.932 -1.646 6.675 L 71.238 57.387 l 3.965 23.111 c 0.421 2.462 -0.572 4.902 -2.591 6.369 c -2.021 1.466 -4.647 1.655 -6.855 0.495 L 45 76.449 L 24.245 87.362 C 23.284 87.866 22.244 88.116 21.209 88.116 z M 45 67.128 c 1.04 0 2.079 0.249 3.028 0.747 l 17.451 9.174 l -3.333 -19.43 c -0.363 -2.109 0.337 -4.264 1.872 -5.761 l 14.117 -13.761 l -19.51 -2.835 c -2.121 -0.308 -3.953 -1.64 -4.901 -3.562 L 45 14.021 l -8.725 17.678 c -0.948 1.921 -2.78 3.253 -4.901 3.561 l -19.51 2.835 l 14.117 13.76 c 1.535 1.495 2.235 3.649 1.873 5.762 l -3.333 19.43 l 17.45 -9.174 C 42.919 67.377 43.96 67.128 45 67.128 z M 42.767 9.498 c 0 0 0 0.001 0.001 0.001 L 42.767 9.498 C 42.768 9.498 42.768 9.498 42.767 9.498 z" transform=" matrix(1 0 0 1 0 0) " stroke-linecap="round"></path>
    </g>
  </symbol>
  <symbol xmlns="http://www.w3.org/2000/svg" xmlns:xlink="http://www.w3.org/1999/xlink" version="1.1" xml:space="preserve" viewBox="0 0 256 256" id="rating-star-1">
    <defs></defs>
    <g transform="translate(1.4065934065934016 1.4065934065934016) scale(2.81 2.81)">
      <path d="M 21.209 88.116 c -1.344 0 -2.68 -0.422 -3.821 -1.251 c -2.019 -1.467 -3.012 -3.907 -2.59 -6.368 l 3.964 -23.11 L 1.971 41.019 c -1.788 -1.743 -2.419 -4.301 -1.647 -6.675 c 0.772 -2.374 2.785 -4.071 5.256 -4.429 l 23.204 -3.372 L 39.162 5.515 C 40.267 3.277 42.504 1.886 45 1.886 c 0 0 0 0 0.001 0 c 2.496 0 4.732 1.391 5.837 3.629 l 10.378 21.028 l 23.206 3.372 c 2.469 0.358 4.483 2.056 5.255 4.429 c 0.772 2.374 0.142 4.932 -1.646 6.675 L 71.238 57.387 l 3.965 23.111 c 0.421 2.462 -0.572 4.902 -2.591 6.369 c -2.021 1.466 -4.647 1.655 -6.855 0.495 L 45 76.449 L 24.245 87.362 C 23.284 87.866 22.244 88.116 21.209 88.116 z M 45 67.128 c 1.04 0 2.079 0.249 3.028 0.747 l 17.451 9.174 l -3.333 -19.43 c -0.363 -2.109 0.337 -4.264 1.872 -5.761 l 14.117 -13.761 l -19.51 -2.835 c -2.121 -0.308 -3.953 -1.64 -4.901 -3.562 L 45 14.021 l -8.725 17.678 c -0.948 1.921 -2.78 3.253 -4.901 3.561 l -19.51 2.835 l 14.117 13.76 c 1.535 1.495 2.235 3.649 1.873 5.762 l -3.333 19.43 l 17.45 -9.174 C 42.919 67.377 43.96 67.128 45 67.128 z M 42.767 9.498 c 0 0 0 0.001 0.001 0.001 L 42.767 9.498 C 42.768 9.498 42.768 9.498 42.767 9.498 z" transform=" matrix(1 0 0 1 0 0) " stroke-linecap="round"></path>
    </g>
  </symbol>
  <symbol xmlns="http://www.w3.org/2000/svg" xmlns:xlink="http://www.w3.org/1999/xlink" version="1.1" xml:space="preserve" viewBox="0 0 256 256" id="rating-star-2">
    <defs></defs>
    <g transform="translate(1.4065934065934016 1.4065934065934016) scale(2.81 2.81)">
      <path d="M 21.209 88.116 c -1.344 0 -2.68 -0.422 -3.821 -1.251 c -2.019 -1.467 -3.012 -3.907 -2.59 -6.368 l 3.964 -23.11 L 1.971 41.019 c -1.788 -1.743 -2.419 -4.301 -1.647 -6.675 c 0.772 -2.374 2.785 -4.071 5.256 -4.429 l 23.204 -3.372 L 39.162 5.515 C 40.267 3.277 42.504 1.886 45 1.886 c 0 0 0 0 0.001 0 c 2.496 0 4.732 1.391 5.837 3.629 l 10.378 21.028 l 23.206 3.372 c 2.469 0.358 4.483 2.056 5.255 4.429 c 0.772 2.374 0.142 4.932 -1.646 6.675 L 71.238 57.387 l 3.965 23.111 c 0.421 2.462 -0.572 4.902 -2.591 6.369 c -2.021 1.466 -4.647 1.655 -6.855 0.495 L 45 76.449 L 24.245 87.362 C 23.284 87.866 22.244 88.116 21.209 88.116 z M 45 67.128 c 1.04 0 2.079 0.249 3.028 0.747 l 17.451 9.174 l -3.333 -19.43 c -0.363 -2.109 0.337 -4.264 1.872 -5.761 l 14.117 -13.761 l -19.51 -2.835 c -2.121 -0.308 -3.953 -1.64 -4.901 -3.562 L 45 14.021 l -8.725 17.678 c -0.948 1.921 -2.78 3.253 -4.901 3.561 l -19.51 2.835 l 14.117 13.76 c 1.535 1.495 2.235 3.649 1.873 5.762 l -3.333 19.43 l 17.45 -9.174 C 42.919 67.377 43.96 67.128 45 67.128 z M 42.767 9.498 c 0 0 0 0.001 0.001 0.001 L 42.767 9.498 C 42.768 9.498 42.768 9.498 42.767 9.498 z" transform=" matrix(1 0 0 1 0 0) " stroke-linecap="round"></path>
    </g>
  </symbol>
</svg>